<?xml version="1.0" standalone="no"?>
<!DOCTYPE svg PUBLIC "-//W3C//DTD SVG 20010904//EN"
 "http://www.w3.org/TR/2001/REC-SVG-20010904/DTD/svg10.dtd">
<svg version="1.0" xmlns="http://www.w3.org/2000/svg"
 width="512.000000pt" height="512.000000pt" viewBox="0 0 512.000000 512.000000"
 preserveAspectRatio="xMidYMid meet">
<metadata>
Created by potrace 1.14, written by Peter Selinger 2001-2017
</metadata>
<g transform="translate(0.000000,512.000000) scale(0.100000,-0.100000)"
fill="#000000" stroke="none">
<path d="M2369 5115 c-2 -2 -36 -6 -74 -9 -39 -3 -81 -8 -95 -11 -14 -3 -41
-8 -60 -10 -19 -3 -66 -12 -105 -20 -38 -9 -79 -17 -90 -19 -58 -12 -213 -63
-310 -100 -602 -236 -1083 -675 -1365 -1245 -81 -164 -168 -398 -194 -523 -3
-13 -8 -34 -11 -48 -3 -14 -8 -36 -11 -50 -2 -14 -6 -34 -9 -46 -5 -21 -14
-77 -21 -124 -15 -106 -19 -181 -19 -360 1 -184 4 -241 20 -345 3 -16 7 -43 9
-60 28 -197 125 -502 224 -702 76 -153 210 -373 269 -438 10 -12 34 -41 53
-65 195 -252 517 -510 831 -666 165 -82 406 -172 533 -199 12 -2 55 -11 96
-20 41 -9 93 -18 115 -21 22 -3 46 -7 53 -9 58 -19 492 -28 622 -12 69 8 291
47 300 52 3 2 21 6 41 9 54 8 329 101 407 137 398 183 673 390 954 717 245
284 480 777 534 1118 3 21 8 42 10 45 2 4 6 24 9 45 3 22 7 48 9 60 20 99 29
492 14 619 -50 430 -190 820 -416 1160 -217 324 -445 542 -818 782 -51 34
-280 147 -360 180 -167 67 -424 135 -596 158 -23 3 -59 8 -78 11 -40 7 -466
15 -471 9z"/>
</g>
</svg>
